<!-- Generator: Adobe Illustrator 23.0.3, SVG Export Plug-In  -->
<svg version="1.1" xmlns="http://www.w3.org/2000/svg" xmlns:xlink="http://www.w3.org/1999/xlink" x="0px" y="0px"
  width="256px" height="194px" viewBox="0 0 256 194" style="enable-background:new 0 0 256 194;" xml:space="preserve">
  <style type="text/css">
    .st0 {
      fill: #0071BD;
    }

    .st1 {
      fill: #0B296D;
    }

    .st2 {
      fill: #ff6913;
    }
  </style>
  <defs>
  </defs>
  <g>
    <g>
      <path class="st0"
        d="M106.3,78.5l-9.4,16.3l9.8,17.1h18.9L106.3,78.5z M149.7,78.5l-19.3,33.4h18.9l9.8-17.1L149.7,78.5z
			 M149.7,78.5l-19.3,33.4h18.9l9.8-17.1L149.7,78.5z M106.3,78.5l-9.4,16.3l9.8,17.1h18.9L106.3,78.5z M106.3,78.5l-9.4,16.3
			l9.8,17.1h18.9L106.3,78.5z M149.7,78.5l-19.3,33.4h18.9l9.8-17.1L149.7,78.5z M106.3,78.5l-9.4,16.3l9.8,17.1h18.9L106.3,78.5z
			 M149.7,78.5l-19.3,33.4h18.9l9.8-17.1L149.7,78.5z M149.7,78.5l-19.3,33.4h18.9l9.8-17.1L149.7,78.5z M106.3,78.5l-9.4,16.3
			l9.8,17.1h18.9L106.3,78.5z M106.3,78.5l-9.4,16.3l9.8,17.1h18.9L106.3,78.5z M106.3,78.5l-9.4,16.3l9.8,17.1h18.9L106.3,78.5z" />
      <polygon class="st0" points="106.3,78.5 125.6,111.9 106.7,111.9 96.9,94.9 		" />
      <polygon class="st0" points="159.1,94.9 149.3,111.9 130.4,111.9 149.7,78.5 		" />
      <path class="st0"
        d="M106.3,78.5l-9.4,16.3l9.8,17.1h18.9L106.3,78.5z M149.7,78.5l-19.3,33.4h18.9l9.8-17.1L149.7,78.5z
			 M149.7,78.5l-19.3,33.4h18.9l9.8-17.1L149.7,78.5z M106.3,78.5l-9.4,16.3l9.8,17.1h18.9L106.3,78.5z M106.3,78.5l-9.4,16.3
			l9.8,17.1h18.9L106.3,78.5z M149.7,78.5l-19.3,33.4h18.9l9.8-17.1L149.7,78.5z M106.3,78.5l-9.4,16.3l9.8,17.1h18.9L106.3,78.5z
			 M149.7,78.5l-19.3,33.4h18.9l9.8-17.1L149.7,78.5z M149.7,78.5l-19.3,33.4h18.9l9.8-17.1L149.7,78.5z M106.3,78.5l-9.4,16.3
			l9.8,17.1h18.9L106.3,78.5z M106.3,78.5l-9.4,16.3l9.8,17.1h18.9L106.3,78.5z M106.3,78.5l-9.4,16.3l9.8,17.1h18.9L106.3,78.5z" />
      <polygon class="st0" points="125.6,111.9 106.7,111.9 96.9,94.9 106.3,78.5 		" />
      <polygon class="st0" points="159.1,94.9 149.3,111.9 130.4,111.9 149.7,78.5 		" />
      <g>
        <g>
          <path class="st0" d="M149.7,78.5l-19.3,33.4h18.9l9.8-17.1L149.7,78.5z" />
        </g>
        <g>
          <path class="st0" d="M106.3,78.5l-9.4,16.3l9.8,17.1h18.9L106.3,78.5z" />
          <polygon class="st0" points="227.7,142.8 179.6,59.4 173.1,70.6 163.7,54.2 179.6,26.7 256,159.1 0,159.1 76.4,26.7 92.3,54.3 
					82.9,70.6 76.4,59.4 28.3,142.8 				" />
        </g>
      </g>
      <path class="st0"
        d="M106.3,78.5l-9.4,16.3l9.8,17.1h18.9L106.3,78.5z M149.7,78.5l-19.3,33.4h18.9l9.8-17.1L149.7,78.5z
			 M149.7,78.5l-19.3,33.4h18.9l9.8-17.1L149.7,78.5z M106.3,78.5l-9.4,16.3l9.8,17.1h18.9L106.3,78.5z M106.3,78.5l-9.4,16.3
			l9.8,17.1h18.9L106.3,78.5z M149.7,78.5l-19.3,33.4h18.9l9.8-17.1L149.7,78.5z M106.3,78.5l-9.4,16.3l9.8,17.1h18.9L106.3,78.5z
			 M149.7,78.5l-19.3,33.4h18.9l9.8-17.1L149.7,78.5z M149.7,78.5l-19.3,33.4h18.9l9.8-17.1L149.7,78.5z M106.3,78.5l-9.4,16.3
			l9.8,17.1h18.9L106.3,78.5z M106.3,78.5l-9.4,16.3l9.8,17.1h18.9L106.3,78.5z M106.3,78.5l-9.4,16.3l9.8,17.1h18.9L106.3,78.5z" />
      <path class="st0" d="M128,0L51.6,132.4h152.9L128,0z M79.9,116L128,32.7l48.1,83.3H79.9z" />
    </g>
    <g>
      <path class="st1" d="M0,168.2c0.9-0.1,1.7-0.2,2.6-0.2c0.8,0,1.7,0.1,2.6,0.2v10h8.5v-10c0.9-0.1,1.7-0.2,2.6-0.2
			c0.8,0,1.7,0.1,2.6,0.2v25.4c-0.9,0.1-1.8,0.2-2.6,0.2c-0.9,0-1.7-0.1-2.6-0.2v-11H5.2v11c-0.9,0.1-1.8,0.2-2.6,0.2
			c-0.9,0-1.7-0.1-2.6-0.2V168.2z M23.8,168.2c0.9-0.1,1.7-0.2,2.6-0.2c0.8,0,1.7,0.1,2.6,0.2v25.4c-0.9,0.1-1.8,0.2-2.6,0.2
			c-0.9,0-1.7-0.1-2.6-0.2V168.2z M34.6,168.2c1-0.1,1.8-0.2,2.7-0.2c0.9,0,1.8,0.1,2.7,0.2l5.8,14.5l6-14.5
			c0.7-0.1,1.6-0.2,2.4-0.2c0.9,0,1.8,0.1,2.6,0.2l1.2,25.4c-0.9,0.1-1.7,0.2-2.5,0.2c-0.8,0-1.6-0.1-2.4-0.2l-0.6-17.2l-5.2,11.9
			c-0.7,0.1-1.4,0.2-2.1,0.2c-0.6,0-1.2,0-1.9-0.2l-4.8-12.2l-0.5,17.5c-0.7,0.1-1.5,0.2-2.2,0.2c-0.7,0-1.5-0.1-2.3-0.2L34.6,168.2
			z M68.7,168.2c1-0.1,1.8-0.2,2.9-0.2c1,0,1.8,0.1,2.9,0.2l7.9,25.4c-1,0.1-1.9,0.2-2.8,0.2c-0.9,0-1.8-0.1-2.6-0.2l-1.4-5.1h-8.4
			l-1.4,5.1c-0.8,0.1-1.7,0.2-2.4,0.2c-0.9,0-1.7-0.1-2.6-0.2L68.7,168.2z M68.3,184.2h6l-2.9-10.7L68.3,184.2z M85.2,193.6v-25.4
			c0.9-0.1,1.7-0.2,2.5-0.2s1.7,0.1,2.6,0.2v20.9h8.8c0.1,0.8,0.2,1.5,0.2,2.2c0,0.7,0,1.4-0.2,2.3H85.2z M108.5,168.2
			c1-0.1,1.8-0.2,2.9-0.2c1,0,1.8,0.1,2.9,0.2l7.9,25.4c-1,0.1-1.9,0.2-2.8,0.2c-0.9,0-1.8-0.1-2.6-0.2l-1.4-5.1h-8.4l-1.4,5.1
			c-0.8,0.1-1.7,0.2-2.4,0.2c-0.9,0-1.7-0.1-2.6-0.2L108.5,168.2z M108.1,184.2h6l-2.9-10.7L108.1,184.2z M128.7,184.5l-7.9-16.3
			c1-0.1,2-0.2,3-0.2c0.9,0,1.8,0.1,2.7,0.2l5,11.5l4.9-11.5c0.9-0.1,1.8-0.2,2.7-0.2c0.8,0,1.8,0.1,2.7,0.2l-7.9,16.3v9.1
			c-1,0.1-1.8,0.2-2.6,0.2c-0.8,0-1.7,0-2.6-0.2V184.5z M148.5,168.2c1-0.1,1.8-0.2,2.9-0.2c1,0,1.8,0.1,2.9,0.2l7.9,25.4
			c-1,0.1-1.9,0.2-2.8,0.2c-0.9,0-1.8-0.1-2.6-0.2l-1.4-5.1h-8.4l-1.4,5.1c-0.8,0.1-1.7,0.2-2.4,0.2c-0.9,0-1.7-0.1-2.6-0.2
			L148.5,168.2z M148.1,184.2h6l-2.9-10.7L148.1,184.2z M165,168.2c0.7-0.1,1.4-0.2,2.1-0.2c0.7,0,1.4,0.1,2.2,0.2l9.8,16.2v-16.2
			c0.8-0.1,1.7-0.2,2.4-0.2c0.7,0,1.4,0.1,2.1,0.2v25.4c-0.7,0.1-1.4,0.2-2,0.2c-0.7,0-1.4-0.1-2.2-0.2l-9.9-16.1v16.1
			c-0.7,0.1-1.5,0.2-2.3,0.2c-0.8,0-1.5-0.1-2.3-0.2V168.2z" />
      <path class="st2" d="M199.8,181.5l4.7-8.5h-7.8c-0.1-0.7-0.2-1.4-0.2-2.1c0-0.7,0.1-1.5,0.2-2.2h14.8l0.4,0.6l-5.7,9.4h0.1
			c3.7,0,5.9,3.1,5.9,6.2c0,6-4.4,9.1-10.2,9.1c-2.9,0-4.2-0.3-6.7-1.1c0.1-1.4,0.6-3,1.2-4.1c1.8,0.6,3.2,1,5.3,1
			c3,0,5.5-1.3,5.5-4.5c0-2.4-2.2-3.4-4.7-3.4c-0.8,0-1.7,0-2.5,0.2L199.8,181.5z M231.3,170.3c0,0.6-0.1,1.2-0.3,1.9
			c-5.2,0.2-8.1,3.6-8.8,7.6c0.8-1.2,2.3-2.5,5.1-2.5c4.1,0,7.6,2.7,7.6,8.2c0,5.6-4.4,8.6-8.9,8.6c-5.9,0-9.1-3.4-9.1-10.3
			c0-8.6,4.5-15.2,14-15.7C231.1,168.7,231.3,169.5,231.3,170.3z M229.6,185.5c0-3.1-1.6-4.3-3.7-4.3c-2.4,0-3.8,1.4-3.8,4.2
			c0,3,1.4,4.6,3.7,4.6C228,189.9,229.6,188.5,229.6,185.5z M237.6,181.1c0-7.5,2.6-12.9,9.2-12.9c6.6,0,9.2,5.4,9.2,12.9
			c0,7.6-2.6,12.9-9.2,12.9C240.2,194,237.6,188.6,237.6,181.1z M250.4,181.1c0-5.8-1.2-8.5-3.6-8.5c-2.4,0-3.6,2.7-3.6,8.5
			c0,5.8,1.2,8.5,3.6,8.5C249.2,189.6,250.4,186.9,250.4,181.1z" />
    </g>
  </g>
</svg>